<svg width="16.000000" height="16.000000" viewBox="0 0 16 16" fill="none" xmlns="http://www.w3.org/2000/svg" xmlns:xlink="http://www.w3.org/1999/xlink">
	<desc>
			Created with Pixso.
	</desc>
	<defs/>
	<path d="M1.88 0.51C2.06 0.33 2.27 0.19 2.5 0.11C2.73 0.02 2.98 -0.02 3.22 0C3.47 0.01 3.71 0.08 3.93 0.2C4.15 0.31 4.34 0.47 4.49 0.67L6.29 2.97C6.61 3.4 6.73 3.95 6.6 4.47L6.05 6.66C6.03 6.77 6.03 6.89 6.06 7C6.09 7.12 6.15 7.22 6.23 7.3L8.69 9.76C8.77 9.84 8.87 9.9 8.99 9.93C9.1 9.96 9.22 9.97 9.33 9.94L11.52 9.39C11.78 9.33 12.05 9.32 12.3 9.37C12.56 9.43 12.81 9.54 13.02 9.7L15.32 11.5C16.15 12.14 16.23 13.37 15.48 14.11L14.45 15.14C13.71 15.88 12.6 16.21 11.57 15.85C8.93 14.92 6.54 13.41 4.56 11.43C2.58 9.45 1.07 7.06 0.14 4.42C-0.22 3.39 0.11 2.28 0.85 1.54L1.88 0.51Z" fill="#008139" fill-opacity="1.000000" fill-rule="evenodd"/>
</svg>
